<svg width="35" height="37" xmlns="http://www.w3.org/2000/svg">

 <g>
  <title>background</title>
  <rect fill="none" id="canvas_background" height="39" width="37" y="-1" x="-1"/>
 </g>
 <g>
  <title>Layer 1</title>
  <path stroke="null" id="svg_2" fill="#00796b" d="m12.112663,9c-5.608333,0 -10.112663,4.54849 -10.112663,10.112663s10.112663,16.383398 10.112663,16.383398s10.112663,-10.775065 10.112663,-16.383398s-4.50433,-10.112663 -10.112663,-10.112663zm0,25.171258c-0.927362,-1.015682 -2.649606,-3.002887 -4.37185,-5.343372c-3.179527,-4.28353 -4.857611,-7.639697 -4.857611,-9.759382c0,-5.078412 4.15105,-9.229461 9.229461,-9.229461s9.229461,4.19521 9.229461,9.273621c0,2.075525 -1.678084,5.475853 -4.857611,9.759382c-1.722244,2.296325 -3.444488,4.28353 -4.37185,5.299212z"/>
  <path stroke="null" id="svg_3" fill="#00796b" d="m12.310979,13c-2.950544,0 -5.310979,2.360435 -5.310979,5.310979c0,2.950544 2.360435,5.310979 5.310979,5.310979c2.950544,0 5.310979,-2.360435 5.310979,-5.310979c0,-2.901368 -2.360435,-5.310979 -5.310979,-5.310979zm3.048896,8.409051c-0.786812,0.786812 -1.868678,1.278569 -3.048896,1.278569c-1.180218,0 -2.262084,-0.491757 -3.048896,-1.278569c-0.786812,-0.786812 -1.278569,-1.868678 -1.278569,-3.048896c0,-1.180218 0.491757,-2.262084 1.278569,-3.048896c0.786812,-0.786812 1.868678,-1.278569 3.048896,-1.278569c1.180218,0 2.262084,0.491757 3.048896,1.278569c0.786812,0.786812 1.278569,1.868678 1.278569,3.048896c0,1.180218 -0.491757,2.262084 -1.278569,3.048896z"/>
 </g>
</svg>