<svg width="30" height="30" xmlns="http://www.w3.org/2000/svg">

 <g>
  <title>background</title>
  <rect fill="none" id="canvas_background" height="402" width="582" y="-1" x="-1"/>
 </g>
 <g>
  <title>Layer 1</title>
  <path fill="#ffffff" id="svg_1" d="m24,4l-18,0c-1.105,0 -2,0.895 -2,2l0,18c0,1.105 0.895,2 2,2l10,0l0,-9l-3,0l0,-3l3,0l0,-1.611c0,-3.05 1.486,-4.389 4.021,-4.389c1.214,0 1.856,0.09 2.16,0.131l0,2.869l-1.729,0c-1.076,0 -1.452,0.568 -1.452,1.718l0,1.282l3.154,0l-0.428,3l-2.726,0l0,9l5,0c1.105,0 2,-0.895 2,-2l0,-18c0,-1.105 -0.896,-2 -2,-2z"/>
 </g>
</svg>