<?xml version="1.0" encoding="utf-8"?>
<!-- Generator: Adobe Illustrator 16.0.0, SVG Export Plug-In . SVG Version: 6.00 Build 0)  -->
<!DOCTYPE svg PUBLIC "-//W3C//DTD SVG 1.1//EN" "http://www.w3.org/Graphics/SVG/1.1/DTD/svg11.dtd">
<svg version="1.1"
	 id="svg8" xmlns:cc="http://creativecommons.org/ns#" xmlns:dc="http://purl.org/dc/elements/1.1/" xmlns:inkscape="http://www.inkscape.org/namespaces/inkscape" xmlns:rdf="http://www.w3.org/1999/02/22-rdf-syntax-ns#" xmlns:sodipodi="http://sodipodi.sourceforge.net/DTD/sodipodi-0.dtd" xmlns:svg="http://www.w3.org/2000/svg"
	 xmlns="http://www.w3.org/2000/svg" xmlns:xlink="http://www.w3.org/1999/xlink" x="0px" y="0px" width="32px" height="32px"
	 viewBox="0 0 32 32" enable-background="new 0 0 32 32" xml:space="preserve">
<g id="layer1" transform="translate(0,-288.53332)">
	<path id="path879" fill="#00796B" d="M15.996,289.537c-8.272,0-15,6.728-15,15s6.728,15,15,15s15-6.728,15-15
		S24.269,289.537,15.996,289.537z M15.982,293.516c0.553-0.01,1.008,0.43,1.018,0.982c0,0.012,0,0.025,0,0.037v8.998h6.998
		c0.553-0.012,1.01,0.425,1.022,0.978c0.013,0.552-0.425,1.011-0.978,1.022c-0.016,0-0.029,0-0.045,0h-8.002
		c-0.549-0.002-0.994-0.447-0.996-0.996v-10.002c-0.011-0.552,0.428-1.009,0.98-1.02C15.981,293.516,15.982,293.516,15.982,293.516z
		"/>
</g>
</svg>
