<?xml version="1.0" encoding="utf-8"?>
<!-- Generator: Adobe Illustrator 16.0.0, SVG Export Plug-In . SVG Version: 6.00 Build 0)  -->
<!DOCTYPE svg PUBLIC "-//W3C//DTD SVG 1.1//EN" "http://www.w3.org/Graphics/SVG/1.1/DTD/svg11.dtd">
<svg version="1.1" id="Layer_1" xmlns="http://www.w3.org/2000/svg" xmlns:xlink="http://www.w3.org/1999/xlink" x="0px" y="0px"
	 width="48px" height="48px" viewBox="0 0 48 48" enable-background="new 0 0 48 48" xml:space="preserve">
<path fill="#00796B" d="M8,21c-1.66,0-3,1.34-3,3s1.34,3,3,3s3-1.34,3-3S9.66,21,8,21z M8,9c-1.66,0-3,1.34-3,3s1.34,3,3,3
	s3-1.34,3-3S9.66,9,8,9z M8,33.33c-1.47,0-2.67,1.189-2.67,2.67s1.2,2.67,2.67,2.67s2.67-1.189,2.67-2.67S9.47,33.33,8,33.33z
	 M14,38h28v-4H14V38z M14,26h28v-4H14V26z M14,10v4h28v-4H14z"/>
<path fill="none" d="M0,0h48v48H0V0z"/>
</svg>
