<svg width="139" height="139" xmlns="http://www.w3.org/2000/svg">

 <g>
  <title>background</title>
  <rect fill="none" id="canvas_background" height="402" width="582" y="-1" x="-1"/>
 </g>
 <g>
  <title>Layer 1</title>
  <path fill="#00796b" id="svg_1" d="m109.92,59.988c0.426,-2.44 0.661,-4.95 0.661,-7.516c0,-23.326 -18.429,-42.305 -41.081,-42.305c-22.653,0 -41.083,18.979 -41.083,42.305c0,2.566 0.236,5.074 0.663,7.516c-3.567,2.278 -5.939,6.261 -5.939,10.81l0,41.415c0,7.084 5.743,12.826 12.825,12.826l67.067,0c7.08,0 12.822,-5.742 12.822,-12.826l0.004,0l0,-41.415c0,-4.548 -2.37,-8.532 -5.939,-10.81zm-34.761,36.162l0,9c0,3.128 -2.534,5.662 -5.661,5.662c-3.127,0 -5.661,-2.534 -5.661,-5.662l0,-9.004c-3.631,-2.001 -6.094,-5.862 -6.094,-10.302c0,-6.492 5.263,-11.756 11.757,-11.756c6.494,0 11.758,5.264 11.758,11.756c0,4.442 -2.465,8.306 -6.099,10.306zm19.791,-38.179l-50.901,0c-0.349,-1.775 -0.535,-3.616 -0.535,-5.499c0,-15.003 11.657,-27.208 25.986,-27.208c14.328,0 25.984,12.204 25.984,27.208c0,1.883 -0.184,3.724 -0.534,5.499z"/>
 </g>
</svg>