<?xml version="1.0" ?><svg height="100px" id="money_bag" style="enable-background:new 0 0 100 100;" version="1.1" viewBox="0 0 100 100" width="100px" xml:space="preserve" xmlns="http://www.w3.org/2000/svg" xmlns:xlink="http://www.w3.org/1999/xlink">
    <g>
        <path fill="#01b2ac" d="M56.918,10.122c3.646,0,6.612,2.966,6.612,6.612v2.908H37.534v-2.908c0-3.646,2.966-6.612,6.612-6.612H56.918    M56.918,6.122H44.145c-5.861,0-10.612,4.751-10.612,10.612v6.908h33.996v-6.908C67.529,10.873,62.778,6.122,56.918,6.122   L56.918,6.122z"/></g>
        <g><path fill="#01b2ac" d="M57.919,57.76v1.665c0,3.86-3.14,7-7,7h-0.782c-3.86,0-7-3.14-7-7V57.76H57.919 M60.919,54.76H40.137v4.665   c0,5.523,4.477,10,10,10h0.782c5.523,0,10-4.477,10-10V54.76L60.919,54.76z"/></g>
        <g><polygon fill="#00796b" points="90.528,54.76 10.528,54.76 10.528,58.76 90.528,58.76 90.528,54.76  "/></g>
        <g>
            <g><path fill="#01b2ac" d="M91.645,19.642h-82c-1.105,0-2,0.895-2,2v70.236c0,1.105,0.895,2,2,2v0.001h82c1.105,0,2-0.895,2-2V21.642    C93.645,20.538,92.749,19.642,91.645,19.642z M11.645,23.642h78v66.237h-78V23.642z"/></g>
        </g>
</svg>