<?xml version="1.0" ?><!DOCTYPE svg  PUBLIC '-//W3C//DTD SVG 1.1//EN'  'http://www.w3.org/Graphics/SVG/1.1/DTD/svg11.dtd'><svg enable-background="new 0 0 24 24" height="24px" id="Layer_1" version="1.1" viewBox="0 0 24 24" width="24px" xml:space="preserve" xmlns="http://www.w3.org/2000/svg" xmlns:xlink="http://www.w3.org/1999/xlink"><g><path d="M18.7,22.7c-0.1,0-0.2,0-0.3-0.1L12,18.5l-6.5,4.1c-0.2,0.1-0.4,0.1-0.6,0c-0.2-0.1-0.2-0.3-0.2-0.5l2-7.3l-6-4.7   C0.6,9.9,0.6,9.7,0.6,9.5c0.1-0.2,0.2-0.3,0.5-0.3l7.7-0.4l2.7-7.1c0.1-0.2,0.3-0.3,0.5-0.3l0,0c0.2,0,0.4,0.1,0.5,0.3l2.7,7.1   l7.7,0.4c0.2,0,0.4,0.1,0.5,0.3c0.1,0.2,0,0.4-0.2,0.5l-6,4.7l2,7.3c0.1,0.2,0,0.4-0.2,0.5C18.9,22.6,18.8,22.7,18.7,22.7z M2.5,10   l5.2,4.1c0.2,0.1,0.2,0.3,0.2,0.5L6.1,21l5.6-3.6c0.2-0.1,0.4-0.1,0.5,0l5.6,3.6l-1.8-6.4c-0.1-0.2,0-0.4,0.2-0.5l5.2-4.1l-6.7-0.3   c-0.2,0-0.4-0.1-0.4-0.3L12,3.2L9.6,9.4C9.5,9.6,9.4,9.7,9.2,9.7L2.5,10z"/></g></svg>