<svg width="512" height="512" xmlns="http://www.w3.org/2000/svg">

 <g>
  <title>background</title>
  <rect fill="none" id="canvas_background" height="402" width="582" y="-1" x="-1"/>
 </g>
 <g>
  <title>Layer 1</title>
  <path fill="#999999" id="svg_2" d="m512,397.1c0,63.5 -51.5,114.9 -114.9,114.9l-282.2,0c-63.4,0 -114.9,-51.5 -114.9,-114.9l0,-282.2c0,-63.4 51.5,-114.9 114.9,-114.9l282.2,0c63.4,0 114.9,51.5 114.9,114.9l0,282.2z" class="st0"/>
  <path fill="#ffffff" clip-rule="evenodd" fill-rule="evenodd" id="svg_3" d="m299,164.7c8.6,-0.3 17.2,-0.1 25.8,-0.1c1,0 2.1,0 3.5,0l0,-44.7c-4.6,-0.5 -9.4,-1.1 -14.2,-1.3c-8.8,-0.4 -17.6,-0.8 -26.5,-0.6c-13.5,0.3 -26.2,3.6 -37.3,11.5c-12.8,9.2 -19.8,22.1 -22.4,37.3c-1.1,6.3 -1.4,12.8 -1.6,19.2c-0.2,10 0,20 0,30.1l0,3.8l-42.7,0l0,49.9l42.5,0l0,125.4l51.9,0l0,-125.3l42.4,0c2.2,-16.6 4.3,-33 6.5,-50.1c-3.4,0 -6.5,0 -9.5,0c-12.1,0.1 -39.7,0 -39.7,0s0.1,-24.7 0.4,-35.5c0.4,-14.7 9.2,-19.2 20.9,-19.6z" class="st1"/>
 </g>
</svg>